<svg width="24" xmlns="http://www.w3.org/2000/svg" height="24" fill="none">
    <g data-testid="Icon / Load Icon">
        <g class="fills">
            <rect rx="0" ry="0" width="24" height="24" class="frame-background" />
        </g>
        <g data-testid="Icon / Load Icon" style="fill: rgb(0, 0, 0);" class="frame-children">
            <path
                d="M12 22.353c-1.459 0-2.817-.265-4.074-.797A10.21 10.21 0 0 1 4.64 19.36a10.242 10.242 0 0 1-2.196-3.286c-.531-1.257-.797-2.615-.797-4.074 0-1.458.265-2.815.797-4.072a10.299 10.299 0 0 1 2.193-3.287 10.23 10.23 0 0 1 3.286-2.206C9.182 1.9 10.541 1.633 12 1.633c.266 0 .498.101.695.304a.974.974 0 0 1 0 1.395.951.951 0 0 1-.695.295c-2.322 0-4.298.815-5.928 2.445S3.627 9.678 3.627 12s.815 4.298 2.445 5.928S9.678 20.373 12 20.373s4.298-.815 5.928-2.445 2.445-3.606 2.445-5.928c0-.266.098-.497.295-.694a.95.95 0 0 1 .694-.296c.265 0 .499.098.702.296a.94.94 0 0 1 .304.694c0 1.459-.268 2.819-.804 4.078a10.288 10.288 0 0 1-2.203 3.286 10.234 10.234 0 0 1-3.286 2.193c-1.257.531-2.616.796-4.075.796Z"
                style="fill: rgb(31, 31, 31);" class="fills" data-testid="svg-path" />
        </g>
    </g>
</svg>