<svg width="26" xmlns="http://www.w3.org/2000/svg" height="26" fill="none"><g data-testid="Acc icon Outline" style="fill: currentColor;"><path d="M6.074 18.927c1.127-.774 2.245-1.368 3.355-1.782 1.109-.414 2.302-.621 3.578-.621 1.276 0 2.476.211 3.599.633a15.761 15.761 0 0 1 3.347 1.77c.774-.985 1.321-1.951 1.639-2.898a9.422 9.422 0 0 0 .478-3.028c0-2.57-.869-4.724-2.607-6.463-1.738-1.739-3.892-2.608-6.46-2.608-2.569 0-4.723.869-6.463 2.608-1.74 1.739-2.61 3.893-2.61 6.463 0 1.071.161 2.079.484 3.023.323.945.876 1.912 1.66 2.903Zm6.921-5.006c-1.076 0-1.978-.366-2.706-1.098-.727-.732-1.091-1.633-1.091-2.702 0-1.07.365-1.971 1.096-2.705.731-.734 1.635-1.1 2.711-1.1 1.076 0 1.978.368 2.706 1.105.727.737 1.091 1.641 1.091 2.71s-.365 1.969-1.096 2.697c-.731.729-1.635 1.093-2.711 1.093Zm.009 10.298c-1.534 0-2.983-.294-4.346-.881a11.364 11.364 0 0 1-3.578-2.415 11.387 11.387 0 0 1-2.415-3.573 10.872 10.872 0 0 1-.881-4.357c0-1.534.295-2.981.884-4.342a11.407 11.407 0 0 1 2.413-3.57A11.556 11.556 0 0 1 8.65 2.66a10.766 10.766 0 0 1 4.358-.891c1.534 0 2.981.297 4.341.891a11.55 11.55 0 0 1 3.57 2.421 11.505 11.505 0 0 1 2.421 3.573 10.74 10.74 0 0 1 .891 4.343 10.77 10.77 0 0 1-.891 4.348 11.495 11.495 0 0 1-2.421 3.576 11.413 11.413 0 0 1-3.572 2.414 10.818 10.818 0 0 1-4.343.884ZM13 22.073c.962 0 1.892-.134 2.789-.403.897-.269 1.806-.749 2.727-1.44-.931-.64-1.845-1.119-2.74-1.436A8.238 8.238 0 0 0 13 18.317c-.955 0-1.877.159-2.768.477-.89.317-1.801.796-2.732 1.436.92.691 1.827 1.171 2.719 1.44a9.574 9.574 0 0 0 2.781.403Zm0-9.961c.582 0 1.06-.184 1.433-.552.374-.368.561-.846.561-1.434s-.187-1.069-.561-1.442c-.373-.373-.851-.559-1.433-.559-.582 0-1.06.186-1.433.559-.374.373-.561.854-.561 1.442s.187 1.066.561 1.434c.373.368.851.552 1.433.552Zm0-1.994Zm.015 10.085Z" style="fill: currentColor; fill-opacity: 1;" class="fills" data-testid="svg-path"/></g></svg>