<svg width="26" xmlns="http://www.w3.org/2000/svg" height="26" fill="currentColor">
        <path
            d="m9.183 17.487 5.234-1.512c.379-.1.704-.285.975-.556.271-.271.456-.596.556-.975L17.46 9.21a.493.493 0 0 0-.133-.53.49.49 0 0 0-.535-.137l-5.233 1.512a2.107 2.107 0 0 0-.975.556 2.099 2.099 0 0 0-.556.975l-1.513 5.233a.495.495 0 0 0 .133.53.494.494 0 0 0 .535.138Zm3.808-3.632a.796.796 0 0 1-.593-.26.846.846 0 0 1-.251-.604c0-.229.087-.426.261-.593a.842.842 0 0 1 .603-.251c.229 0 .427.087.594.261.167.173.25.374.25.603a.799.799 0 0 1-.26.594.845.845 0 0 1-.604.25Zm.019 10.364c-1.556 0-3.014-.293-4.374-.878a11.317 11.317 0 0 1-3.568-2.406 11.314 11.314 0 0 1-2.407-3.568c-.585-1.36-.877-2.819-.877-4.377 0-1.558.292-3.018.877-4.379a11.2 11.2 0 0 1 2.404-3.558 11.506 11.506 0 0 1 3.567-2.4c1.361-.59 2.82-.884 4.379-.884 1.559 0 3.02.294 4.382.883a11.351 11.351 0 0 1 3.559 2.397 11.319 11.319 0 0 1 2.398 3.56c.589 1.365.884 2.826.884 4.385 0 1.558-.295 3.017-.884 4.377a11.458 11.458 0 0 1-2.401 3.561 11.28 11.28 0 0 1-3.559 2.404 10.939 10.939 0 0 1-4.38.883Zm.002-2.146c2.537 0 4.681-.88 6.433-2.639 1.752-1.759 2.628-3.906 2.628-6.443 0-2.537-.875-4.681-2.625-6.433-1.751-1.752-3.894-2.628-6.431-2.628s-4.686.875-6.446 2.625C4.81 8.305 3.93 10.449 3.93 12.986c0 2.536.879 4.685 2.638 6.446 1.759 1.76 3.907 2.641 6.444 2.641Zm-.011-9.072Z"
            />
</svg>