<svg width="26" height="26" xmlns="http://www.w3.org/2000/svg" fill="currentColor">
        <path d="M5.181 21.798h4.145v-6.585c0-.342.117-.629.351-.863.234-.234.522-.351.863-.351h4.902c.342 0 .629.117.863.351.234.234.351.521.351.863v6.585h4.146V10.079L12.991 4.22l-7.81 5.859v11.719Zm-2.428 0V10.073c0-.381.084-.742.251-1.083.167-.34.403-.626.71-.855l7.811-5.871a2.332 2.332 0 0 1 1.461-.489c.551 0 1.041.163 1.472.489l7.81 5.871a2.396 2.396 0 0 1 .979 1.938v11.725c0 .679-.237 1.253-.71 1.723a2.37 2.37 0 0 1-1.735.704h-5.169c-.341 0-.629-.117-.863-.351a1.172 1.172 0 0 1-.351-.863v-6.775h-2.856v6.775c0 .342-.117.629-.351.863a1.172 1.172 0 0 1-.863.351H5.181c-.68 0-1.254-.235-1.723-.704a2.343 2.343 0 0 1-.705-1.723Zm10.238-8.804Z"/>
  </svg>
  