<svg width="26" xmlns="http://www.w3.org/2000/svg" height="26" fill="none"><g data-testid="Burger Menu Icon" style="fill: rgb(0, 0, 0);"><path d="M3.94 20.066c-.302 0-.556-.104-.763-.311a1.065 1.065 0 0 1-.31-.781c0-.303.104-.557.31-.762.207-.204.461-.306.763-.306h18.12c.302 0 .558.103.77.311.212.208.318.463.318.766a1.069 1.069 0 0 1-1.088 1.083H3.94Zm0-5.993c-.302 0-.556-.104-.763-.312a1.045 1.045 0 0 1-.31-.766c0-.303.104-.557.31-.761.207-.204.461-.307.763-.307h18.12c.302 0 .558.104.77.312.212.207.318.463.318.766s-.106.557-.318.761a1.07 1.07 0 0 1-.77.307H3.94Zm0-5.979c-.302 0-.556-.103-.763-.311a1.065 1.065 0 0 1-.31-.781c0-.303.104-.557.31-.762.207-.204.461-.306.763-.306h18.12c.302 0 .558.104.77.311.212.208.318.463.318.766a1.069 1.069 0 0 1-1.088 1.083H3.94Z" style="fill: rgb(31, 31, 31); fill-opacity: 1;" class="fills" data-testid="svg-path"/></g></svg>