<svg width="24" xmlns="http://www.w3.org/2000/svg" height="24" fill="none"><g data-testid="More Icon Vertical" style="fill: rgb(0, 0, 0);"><path d="M12.007 20.481c-.376 0-.697-.134-.963-.4a1.31 1.31 0 0 1-.4-.959c0-.365.133-.684.399-.957.265-.273.584-.409.957-.409.381 0 .702.137.963.411.262.274.393.595.393.963s-.131.685-.393.951c-.262.266-.58.4-.956.4Zm0-7.125c-.376 0-.697-.133-.963-.399a1.303 1.303 0 0 1-.4-.957c0-.38.133-.701.399-.963.265-.262.584-.393.957-.393.381 0 .702.131.963.393a1.3 1.3 0 0 1 .393.956c0 .376-.131.697-.393.963s-.58.4-.956.4Zm0-7.111c-.376 0-.697-.135-.963-.404a1.33 1.33 0 0 1-.4-.97c0-.378.133-.7.399-.966.265-.266.584-.399.957-.399.381 0 .702.134.963.403.262.268.393.591.393.969s-.131.7-.393.967c-.262.266-.58.4-.956.4Z" style="fill: rgb(31, 31, 31);" class="fills" data-testid="svg-path"/></g></svg>