<svg width="26" xmlns="http://www.w3.org/2000/svg" height="26" fill="currentColor">
    <g >
        <path
            d="M7.481 15.258h2.148c.152 0 .288-.025.407-.077.119-.051.234-.132.345-.243l4.779-4.79c.183-.187.317-.396.403-.627.087-.231.13-.464.13-.698 0-.224-.039-.451-.116-.68a1.627 1.627 0 0 0-.406-.634l-1.002-.987a2.025 2.025 0 0 0-.626-.411 1.842 1.842 0 0 0-.706-.137c-.23 0-.456.038-.68.116a1.607 1.607 0 0 0-.611.39l-4.818 4.806a1.21 1.21 0 0 0-.243.348 1.014 1.014 0 0 0-.077.404v2.148c0 .306.102.561.307.766.204.204.46.306.766.306Zm6.801-6.887-.879 1.822-1.917-1.014.937-1.795 1.859.987Zm-2.271 6.887h6.764a.793.793 0 0 0 .587-.23.789.789 0 0 0 .23-.582.789.789 0 0 0-.817-.813h-5.139l-1.625 1.625Zm-5.894 4.625-2.492 2.492c-.345.345-.738.428-1.179.25-.441-.178-.662-.507-.662-.987V3.93c0-.592.211-1.1.632-1.524a2.059 2.059 0 0 1 1.514-.637h18.14c.592 0 1.1.212 1.524.637.425.424.637.932.637 1.524v13.807c0 .587-.212 1.092-.637 1.513a2.084 2.084 0 0 1-1.524.633H6.117Z"
             />
    </g>
</svg>