<svg width="26" xmlns="http://www.w3.org/2000/svg" height="26" fill="currentColor">
        <path
            d="M11.139 19.316c-2.302 0-4.251-.799-5.847-2.397-1.596-1.598-2.394-3.525-2.394-5.782 0-2.258.799-4.185 2.397-5.783 1.597-1.598 3.53-2.397 5.797-2.397 2.268 0 4.195.799 5.783 2.397 1.587 1.598 2.381 3.527 2.381 5.787 0 .903-.135 1.756-.405 2.56a7.817 7.817 0 0 1-1.215 2.266l7.348 7.286c.242.246.364.542.364.888 0 .347-.122.642-.364.885a1.214 1.214 0 0 1-.898.382 1.14 1.14 0 0 1-.875-.382l-7.317-7.3a6.796 6.796 0 0 1-2.128 1.169c-.815.28-1.69.421-2.627.421Zm-.025-2.44c1.594 0 2.943-.56 4.047-1.679 1.104-1.119 1.656-2.473 1.656-4.06 0-1.588-.553-2.941-1.659-4.061-1.105-1.119-2.453-1.679-4.044-1.679-1.608 0-2.973.56-4.094 1.679-1.122 1.12-1.683 2.473-1.683 4.061 0 1.587.56 2.941 1.68 4.06 1.12 1.119 2.486 1.679 4.097 1.679Z"
            />
</svg>