<svg xmlns="http://www.w3.org/2000/svg" fill="currentColor" id="Figura_Hamburguesa" viewBox="0 0 128.96 134">
  <defs/>
  <g id="Hamburguesa">
    <path d="M66.47 52.85h.97c.64 0 1.16.52 1.16 1.16v83.34c0 .64-.52 1.16-1.16 1.16h-.97c-3.37 0-6.11-2.74-6.11-6.11V58.96c0-3.37 2.74-6.11 6.11-6.11Z" transform="rotate(-90 64.48 95.69)"/>
    <path d="M71.79 24.2h1.67c1.04 0 1.88.84 1.88 1.88v81.9c0 1.04-.84 1.88-1.88 1.88h-1.67c-10.03 0-18.17-8.14-18.17-18.17V42.37c0-10.03 8.14-18.17 18.17-18.17Z" transform="rotate(90 64.48 67.03)"/>
    <rect width="4.32" height="38.88" x="74.74" y="31.01" rx="2.16" ry="2.16" transform="rotate(35.34 76.90725078 50.44472923)"/>
    <path d="M86.46 38.7c0-.66 6.84 3.33 6.84 3.24 0 .1 6.84.44 6.84 3.24 0-1.46-11.62-.75-11.62 2.63 0 2.4-11.62 5.88-11.62 2.63 0-.24 4.78-8.79 4.78-5.87 0 .28 4.78-6.43 4.78-5.87Z"/>
  </g>
</svg>
