<svg xmlns="http://www.w3.org/2000/svg" id="Blanco" fill="currentColor" viewBox="0 0 1121.54 294.62">
  <path id="Cuadro_de_icon" d="M78.32 52.17h99.54c30.65 0 55.53 24.88 55.53 55.53v133.28H78.32V52.17Z" style="fill:none;stroke:currentColor;stroke-miterlimit:10;stroke-width:3px"/>
  <g id="Hamburguesa">
    <path d="M157.84 89.72h.97c.64 0 1.16.52 1.16 1.16v83.34c0 .64-.52 1.16-1.16 1.16h-.97c-3.37 0-6.11-2.74-6.11-6.11V95.83c0-3.37 2.74-6.11 6.11-6.11Z" transform="rotate(-90 155.855 132.555)"/>
    <path d="M163.17 61.07h1.67c1.04 0 1.88.84 1.88 1.88v81.91c0 1.04-.84 1.88-1.88 1.88h-1.67c-10.03 0-18.17-8.14-18.17-18.17V79.25c0-10.03 8.14-18.17 18.17-18.17Z" transform="rotate(90 155.855 103.895)"/>
    <rect width="4.32" height="38.88" x="166.12" y="67.88" rx="2.16" ry="2.16" transform="rotate(35.34 168.25974861 87.29783003)"/>
    <path d="M177.83 75.57c0-.66 6.84 3.33 6.84 3.24 0 .1 6.84.44 6.84 3.24 0-1.46-11.62-.75-11.62 2.63 0 2.4-11.62 5.88-11.62 2.63 0-.24 4.78-8.79 4.78-5.87 0 .28 4.78-6.43 4.78-5.87Z"/>
  </g>
  <g id="Estrellas">
    <path d="m155.86 154.63 1.95 3.96 4.38.64-3.17 3.09.75 4.35-3.91-2.05-3.92 2.05.75-4.35-3.17-3.09 4.38-.64 1.96-3.96zM137.61 154.63l1.95 3.96 4.38.64-3.17 3.09.75 4.35-3.91-2.05-3.92 2.05.75-4.35-3.17-3.09 4.38-.64 1.96-3.96zM173.57 154.63l1.95 3.96 4.38.64-3.17 3.09.75 4.35-3.91-2.05-3.92 2.05.75-4.35-3.16-3.09 4.37-.64 1.96-3.96z"/>
  </g>
  <path d="M398.82 202.44c-9.3-4.92-16.68-11.66-22.15-20.21-5.54-8.62-8.31-18.26-8.31-28.92 0-8 1.61-15.45 4.82-22.36s7.62-12.89 13.23-17.95c5.67-5.13 12.14-9.06 19.39-11.8 7.38-2.73 14.94-4.1 22.67-4.1s15.38 1.37 22.77 4.1c7.18 2.6 13.64 6.5 19.38 11.69 5.67 5.2 10.09 11.22 13.23 18.05 3.21 6.91 4.82 14.36 4.82 22.36s-1.57 15.59-4.72 22.36c-3.15 6.84-7.59 12.89-13.33 18.15-5.81 5.2-12.27 9.13-19.38 11.79-7.18 2.8-14.77 4.2-22.77 4.2-10.46 0-20.34-2.46-29.64-7.38Zm10.46-30.26c5.4 5.27 11.79 7.9 19.18 7.9s13.88-2.63 19.28-7.9c5.47-5.26 8.21-11.55 8.21-18.87 0-4.79-1.27-9.2-3.8-13.23-2.53-4.03-5.92-7.25-10.15-9.64-4.17-2.39-8.68-3.59-13.54-3.59s-9.2 1.2-13.44 3.59c-4.24 2.39-7.63 5.61-10.15 9.64-2.53 4.04-3.8 8.45-3.8 13.23 0 7.32 2.73 13.61 8.21 18.87ZM606.12 176.47c-3.94 9.52-9.99 17.13-18.16 22.82-8.22 5.81-17.5 9.21-27.86 10.2-10.38 1.05-20.38-.37-29.99-4.28-7.35-2.99-13.8-7.11-19.35-12.36-5.57-5.04-10.04-11.06-13.41-18.07-3.31-6.98-5.15-14.17-5.52-21.56-.36-7.39.97-14.83 4.01-22.31 2.96-7.29 7.2-13.51 12.73-18.65 5.44-5.11 11.73-8.96 18.86-11.56 7.22-2.63 14.62-3.83 22.21-3.6 7.78.31 15.25 1.91 22.41 4.82 7.1 2.88 13.54 6.93 19.34 12.13l1.78 1.82 1.79 1.82 9.56-23.53c6.74-16.59 25.67-24.55 42.23-17.76l-40.64 100.06Zm-29.79-12.87c1.79-4.4 2.26-8.89 1.41-13.48-.82-4.65-2.73-8.87-5.73-12.65-2.94-3.76-6.61-6.53-11.01-8.31s-8.99-2.37-13.78-1.75c-4.79.62-9.1 2.31-12.93 5.07-3.81 2.7-6.6 6.25-8.39 10.65-2.73 6.72-2.57 13.52.5 20.4 3 6.85 7.92 11.67 14.77 14.45 6.79 2.76 13.64 2.72 20.57-.1 6.99-2.8 11.85-7.55 14.58-14.28ZM739.38 176.47c-3.94 9.52-9.99 17.13-18.16 22.82-8.22 5.81-17.5 9.21-27.86 10.2-10.38 1.05-20.38-.37-29.99-4.28-7.35-2.99-13.8-7.11-19.35-12.36-5.57-5.04-10.04-11.06-13.41-18.07-3.31-6.98-5.15-14.17-5.52-21.56-.36-7.39.97-14.83 4.01-22.31 2.96-7.29 7.2-13.51 12.73-18.65 5.44-5.11 11.73-8.96 18.86-11.56 7.22-2.63 14.62-3.83 22.21-3.6 7.78.31 15.25 1.91 22.41 4.82 7.1 2.88 13.54 6.93 19.34 12.13l1.78 1.82 1.79 1.82 9.56-23.53c6.74-16.59 25.67-24.55 42.23-17.76l-40.64 100.06Zm-29.79-12.87c1.79-4.4 2.26-8.89 1.41-13.48-.82-4.65-2.73-8.87-5.73-12.65-2.94-3.76-6.61-6.53-11.01-8.31s-8.99-2.37-13.78-1.75c-4.79.62-9.1 2.31-12.93 5.07-3.81 2.7-6.6 6.25-8.39 10.65-2.73 6.72-2.57 13.52.5 20.4 3 6.85 7.92 11.67 14.77 14.45 6.79 2.76 13.64 2.72 20.57-.1 6.99-2.8 11.85-7.55 14.58-14.28ZM812.26 106.52c-2.22 1.68-4.75 2.75-7.6 3.21-2.84.45-5.64.12-8.4-1s-4.98-2.79-6.67-5.01c-1.72-2.31-2.78-4.87-3.17-7.68-.41-2.96-.06-5.79 1.04-8.49 1.12-2.76 2.8-5.01 5.05-6.76 2.39-1.76 4.96-2.84 7.72-3.26 2.76-.42 5.51-.07 8.28 1.05 2.76 1.12 5.01 2.81 6.76 5.05 1.68 2.22 2.74 4.78 3.17 7.69.39 2.82.03 5.61-1.09 8.37s-2.87 5.16-5.09 6.85ZM806.47 126.19l-26.11 64.28c-6.51 16.04-25.14 23.63-41.59 16.94l26.07-64.19c6.52-16.06 25.14-23.67 41.63-17.03ZM928.23 169.34c6.24 9.01 18.89 13.79 28.28 13.79s14.69-2.88 14.69-8.63c0-3.01-2.71-5.24-8.12-6.68-3.84-.89-9.93-2.43-18.29-4.62-6.78-1.78-12.5-5.07-17.16-9.86-4.59-4.73-6.89-11.99-6.89-21.78 0-7.53 1.88-13.91 5.65-19.11 3.84-5.21 8.8-9.04 14.9-11.51 6.23-2.53 13.05-3.8 20.45-3.8 4.18 0 8.43.58 12.74 1.75 1.82.56 4.51 1.72 7.11 2.92 4.43 2.05 6.46 7.24 4.62 11.76l-6.6 16.24c-5.28-3.97-11.03-5.96-17.26-5.96-7.47 0-11.2 2.09-11.2 6.27 0 3.77 2.77 6.41 8.32 7.91 6.1 1.64 12.23 3.19 18.39 4.62 6.78 1.71 12.43 4.86 16.95 9.45 4.59 4.66 6.88 11.99 6.88 21.99 0 7.47-1.99 13.91-5.96 19.32-3.97 5.48-9.28 9.56-15.93 12.23-6.65 2.81-13.53 4.21-20.65 4.21-5.96 0-11.34-.48-16.13-1.44-4.8-.89-9.28-2.4-13.46-4.52-4.32-2.12-8.48-4.69-13.2-8.26 7.14-10.81 8.2-15.22 11.84-26.29Z"/>
  <path d="M875.58 127.75c-6.88-3.03-13.68-3.17-20.39-.43-7.21 2.95-12.91 8.85-15.71 16.12-2.58 6.7-2.53 13.44.15 20.22 2.85 7.21 7.84 12.35 14.97 15.43 7.25 3.13 14.55 3.19 21.89.19 2.84-1.16 5.44-2.74 7.86-5.17 9.42-9.41 22.58-14.07 35.72-11.93l1.24.2c-.73 4.54-2.02 8.94-3.88 13.21-2.97 6.84-7.14 12.85-12.5 18.04-5.36 5.19-11.52 9.16-18.47 11.91-6.95 2.75-14.16 4.07-21.62 3.95-7.46-.12-14.61-1.66-21.46-4.61-6.85-2.96-12.86-7.1-18.05-12.45-5.19-5.34-9.15-11.48-11.89-18.42-2.74-6.94-4.05-14.13-3.92-21.57.13-7.44 1.68-14.59 4.66-21.42 2.97-6.84 7.14-12.85 12.5-18.04 5.36-5.19 11.52-9.16 18.47-11.9s14.16-4.07 21.62-3.95c4.4.07 8.75.84 12.98 2.06 5.75 1.66 11.11 4.44 15.9 8.03 2.12 1.58 4.35 3.43 6.2 5.33.05.05.09.1.14.15 7.31 7.62 6.29 19.93-1.97 26.5l-25.43 24.07c-5.39 4.05-13.09 3.67-17.72-1.23-.2-.21-.4-.43-.59-.66-.2-.24-.39-.48-.57-.73-4.2-5.71-2.94-13.77 2.49-18.32l17.37-14.58Z"/>
  <g id="Textos">
    <path d="m257.36 255.01 48.82-120.06h-22.75l5.37-13.23s3.3-8.71 6.97-11.55c3.53-2.74 7.6-3.91 13.59-3.91h8.42l11.29-27.82c4.37-10.67 9.79-18.41 16.1-23.03 6.4-4.69 14.94-7.06 25.38-7.06h33.1l-5.38 13.24s-3.3 9.37-7.03 12.27c-3.57 2.78-7.75 3.49-13.75 3.49h-2.9c-4.58 0-8.14.87-10.59 2.59-2.49 1.75-4.69 4.91-6.52 9.41l-6.92 16.92h29.55l-5.47 13.46s-3.13 8.68-6.84 11.52c-3.53 2.7-7.7 3.72-13.68 3.72h-15.18l-38.47 94.84c-6.21 15.32-20.91 25.22-37.45 25.22h-5.69Z"/>
    <path d="M344.88 110.08h27.52l-1.94 8.59s-1.43 6.98-4.29 9.17c-2.86 2.19-6.87 3.28-12.02 3.28h-17.76l-39.44 97.23c-5.6 13.8-19 22.83-33.9 22.83l48.82-120.06h-20.78l1.96-8.4s1.43-7.09 4.3-9.31c2.86-2.22 6.87-3.33 12.02-3.33h11l12.26-30.21c4.12-10.04 9.06-17.16 14.81-21.38 5.76-4.21 13.46-6.32 23.11-6.32h25.26l-1.91 8.49s-1.45 7.21-4.34 9.46c-2.9 2.25-6.92 3.38-12.06 3.38h-2.9c-5.4 0-9.67 1.09-12.79 3.28-3.12 2.19-5.74 5.89-7.87 11.1l-9.07 22.2Z"/>
    <rect width="85.67" height="5.76" x="113.02" y="184.63" rx="2.88" ry="2.88"/>
    <rect width="57.27" height="5.76" x="127.22" y="198.67" rx="2.88" ry="2.88"/>
  </g>
  <text style="font-family:Corbel,Corbel;font-size:54.31px" transform="translate(1009.54 84.5)"><tspan x="0" y="0">®</tspan></text>
</svg>
